<svg xmlns="http://www.w3.org/2000/svg" xmlns:xlink="http://www.w3.org/1999/xlink" width="600" height="400" viewBox="0 0 2400 1600">
<defs>
  <clipPath id="clip460">
    <rect x="0" y="0" width="2400" height="1600"></rect>
  </clipPath>
</defs>
<path clip-path="url(#clip460)" d="M0 1600 L2400 1600 L2400 0 L0 0  Z" fill="#ffffff" fill-rule="evenodd" fill-opacity="1"></path>
<defs>
  <clipPath id="clip461">
    <rect x="480" y="0" width="1681" height="1600"></rect>
  </clipPath>
</defs>
<path clip-path="url(#clip460)" d="M255.977 1423.18 L2352.76 1423.18 L2352.76 123.472 L255.977 123.472  Z" fill="#ffffff" fill-rule="evenodd" fill-opacity="1"></path>
<defs>
  <clipPath id="clip462">
    <rect x="255" y="123" width="2098" height="1301"></rect>
  </clipPath>
</defs>
<polyline clip-path="url(#clip462)" style="stroke:#000000; stroke-linecap:round; stroke-linejoin:round; stroke-width:2; stroke-opacity:0.1; fill:none" points="552.691,1423.18 552.691,123.472 "></polyline>
<polyline clip-path="url(#clip462)" style="stroke:#000000; stroke-linecap:round; stroke-linejoin:round; stroke-width:2; stroke-opacity:0.1; fill:none" points="948.31,1423.18 948.31,123.472 "></polyline>
<polyline clip-path="url(#clip462)" style="stroke:#000000; stroke-linecap:round; stroke-linejoin:round; stroke-width:2; stroke-opacity:0.1; fill:none" points="1343.93,1423.18 1343.93,123.472 "></polyline>
<polyline clip-path="url(#clip462)" style="stroke:#000000; stroke-linecap:round; stroke-linejoin:round; stroke-width:2; stroke-opacity:0.1; fill:none" points="1739.55,1423.18 1739.55,123.472 "></polyline>
<polyline clip-path="url(#clip462)" style="stroke:#000000; stroke-linecap:round; stroke-linejoin:round; stroke-width:2; stroke-opacity:0.1; fill:none" points="2135.17,1423.18 2135.17,123.472 "></polyline>
<polyline clip-path="url(#clip460)" style="stroke:#000000; stroke-linecap:round; stroke-linejoin:round; stroke-width:4; stroke-opacity:1; fill:none" points="255.977,1423.18 2352.76,1423.18 "></polyline>
<polyline clip-path="url(#clip460)" style="stroke:#000000; stroke-linecap:round; stroke-linejoin:round; stroke-width:4; stroke-opacity:1; fill:none" points="552.691,1423.18 552.691,1404.28 "></polyline>
<polyline clip-path="url(#clip460)" style="stroke:#000000; stroke-linecap:round; stroke-linejoin:round; stroke-width:4; stroke-opacity:1; fill:none" points="948.31,1423.18 948.31,1404.28 "></polyline>
<polyline clip-path="url(#clip460)" style="stroke:#000000; stroke-linecap:round; stroke-linejoin:round; stroke-width:4; stroke-opacity:1; fill:none" points="1343.93,1423.18 1343.93,1404.28 "></polyline>
<polyline clip-path="url(#clip460)" style="stroke:#000000; stroke-linecap:round; stroke-linejoin:round; stroke-width:4; stroke-opacity:1; fill:none" points="1739.55,1423.18 1739.55,1404.28 "></polyline>
<polyline clip-path="url(#clip460)" style="stroke:#000000; stroke-linecap:round; stroke-linejoin:round; stroke-width:4; stroke-opacity:1; fill:none" points="2135.17,1423.18 2135.17,1404.28 "></polyline>
<path clip-path="url(#clip460)" d="M527.379 1481.64 L535.018 1481.64 L535.018 1455.28 L526.707 1456.95 L526.707 1452.69 L534.971 1451.02 L539.647 1451.02 L539.647 1481.64 L547.286 1481.64 L547.286 1485.58 L527.379 1485.58 L527.379 1481.64 Z" fill="#000000" fill-rule="nonzero" fill-opacity="1"></path><path clip-path="url(#clip460)" d="M566.73 1454.1 Q563.119 1454.1 561.291 1457.66 Q559.485 1461.2 559.485 1468.33 Q559.485 1475.44 561.291 1479.01 Q563.119 1482.55 566.73 1482.55 Q570.365 1482.55 572.17 1479.01 Q573.999 1475.44 573.999 1468.33 Q573.999 1461.2 572.17 1457.66 Q570.365 1454.1 566.73 1454.1 M566.73 1450.39 Q572.541 1450.39 575.596 1455 Q578.675 1459.58 578.675 1468.33 Q578.675 1477.06 575.596 1481.67 Q572.541 1486.25 566.73 1486.25 Q560.92 1486.25 557.842 1481.67 Q554.786 1477.06 554.786 1468.33 Q554.786 1459.58 557.842 1455 Q560.92 1450.39 566.73 1450.39 Z" fill="#000000" fill-rule="nonzero" fill-opacity="1"></path><path clip-path="url(#clip460)" d="M927.083 1481.64 L943.402 1481.64 L943.402 1485.58 L921.458 1485.58 L921.458 1481.64 Q924.12 1478.89 928.703 1474.26 Q933.31 1469.61 934.49 1468.27 Q936.736 1465.74 937.615 1464.01 Q938.518 1462.25 938.518 1460.56 Q938.518 1457.8 936.574 1456.07 Q934.652 1454.33 931.551 1454.33 Q929.352 1454.33 926.898 1455.09 Q924.467 1455.86 921.69 1457.41 L921.69 1452.69 Q924.514 1451.55 926.967 1450.97 Q929.421 1450.39 931.458 1450.39 Q936.828 1450.39 940.023 1453.08 Q943.217 1455.77 943.217 1460.26 Q943.217 1462.39 942.407 1464.31 Q941.62 1466.2 939.514 1468.8 Q938.935 1469.47 935.833 1472.69 Q932.731 1475.88 927.083 1481.64 Z" fill="#000000" fill-rule="nonzero" fill-opacity="1"></path><path clip-path="url(#clip460)" d="M963.217 1454.1 Q959.606 1454.1 957.777 1457.66 Q955.972 1461.2 955.972 1468.33 Q955.972 1475.44 957.777 1479.01 Q959.606 1482.55 963.217 1482.55 Q966.851 1482.55 968.657 1479.01 Q970.486 1475.44 970.486 1468.33 Q970.486 1461.2 968.657 1457.66 Q966.851 1454.1 963.217 1454.1 M963.217 1450.39 Q969.027 1450.39 972.083 1455 Q975.161 1459.58 975.161 1468.33 Q975.161 1477.06 972.083 1481.67 Q969.027 1486.25 963.217 1486.25 Q957.407 1486.25 954.328 1481.67 Q951.273 1477.06 951.273 1468.33 Q951.273 1459.58 954.328 1455 Q957.407 1450.39 963.217 1450.39 Z" fill="#000000" fill-rule="nonzero" fill-opacity="1"></path><path clip-path="url(#clip460)" d="M1332.77 1466.95 Q1336.13 1467.66 1338 1469.93 Q1339.9 1472.2 1339.9 1475.53 Q1339.9 1480.65 1336.38 1483.45 Q1332.86 1486.25 1326.38 1486.25 Q1324.21 1486.25 1321.89 1485.81 Q1319.6 1485.39 1317.15 1484.54 L1317.15 1480.02 Q1319.09 1481.16 1321.41 1481.74 Q1323.72 1482.32 1326.24 1482.32 Q1330.64 1482.32 1332.93 1480.58 Q1335.25 1478.84 1335.25 1475.53 Q1335.25 1472.48 1333.1 1470.77 Q1330.97 1469.03 1327.15 1469.03 L1323.12 1469.03 L1323.12 1465.19 L1327.33 1465.19 Q1330.78 1465.19 1332.61 1463.82 Q1334.44 1462.43 1334.44 1459.84 Q1334.44 1457.18 1332.54 1455.77 Q1330.66 1454.33 1327.15 1454.33 Q1325.22 1454.33 1323.03 1454.75 Q1320.83 1455.16 1318.19 1456.04 L1318.19 1451.88 Q1320.85 1451.14 1323.16 1450.77 Q1325.5 1450.39 1327.56 1450.39 Q1332.89 1450.39 1335.99 1452.83 Q1339.09 1455.23 1339.09 1459.35 Q1339.09 1462.22 1337.45 1464.21 Q1335.8 1466.18 1332.77 1466.95 Z" fill="#000000" fill-rule="nonzero" fill-opacity="1"></path><path clip-path="url(#clip460)" d="M1358.77 1454.1 Q1355.16 1454.1 1353.33 1457.66 Q1351.52 1461.2 1351.52 1468.33 Q1351.52 1475.44 1353.33 1479.01 Q1355.16 1482.55 1358.77 1482.55 Q1362.4 1482.55 1364.21 1479.01 Q1366.03 1475.44 1366.03 1468.33 Q1366.03 1461.2 1364.21 1457.66 Q1362.4 1454.1 1358.77 1454.1 M1358.77 1450.39 Q1364.58 1450.39 1367.63 1455 Q1370.71 1459.58 1370.71 1468.33 Q1370.71 1477.06 1367.63 1481.67 Q1364.58 1486.25 1358.77 1486.25 Q1352.96 1486.25 1349.88 1481.67 Q1346.82 1477.06 1346.82 1468.33 Q1346.82 1459.58 1349.88 1455 Q1352.96 1450.39 1358.77 1450.39 Z" fill="#000000" fill-rule="nonzero" fill-opacity="1"></path><path clip-path="url(#clip460)" d="M1727.72 1455.09 L1715.91 1473.54 L1727.72 1473.54 L1727.72 1455.09 M1726.49 1451.02 L1732.37 1451.02 L1732.37 1473.54 L1737.3 1473.54 L1737.3 1477.43 L1732.37 1477.43 L1732.37 1485.58 L1727.72 1485.58 L1727.72 1477.43 L1712.12 1477.43 L1712.12 1472.92 L1726.49 1451.02 Z" fill="#000000" fill-rule="nonzero" fill-opacity="1"></path><path clip-path="url(#clip460)" d="M1755.03 1454.1 Q1751.42 1454.1 1749.59 1457.66 Q1747.79 1461.2 1747.79 1468.33 Q1747.79 1475.44 1749.59 1479.01 Q1751.42 1482.55 1755.03 1482.55 Q1758.67 1482.55 1760.47 1479.01 Q1762.3 1475.44 1762.3 1468.33 Q1762.3 1461.2 1760.47 1457.66 Q1758.67 1454.1 1755.03 1454.1 M1755.03 1450.39 Q1760.84 1450.39 1763.9 1455 Q1766.98 1459.58 1766.98 1468.33 Q1766.98 1477.06 1763.9 1481.67 Q1760.84 1486.25 1755.03 1486.25 Q1749.22 1486.25 1746.14 1481.67 Q1743.09 1477.06 1743.09 1468.33 Q1743.09 1459.58 1746.14 1455 Q1749.22 1450.39 1755.03 1450.39 Z" fill="#000000" fill-rule="nonzero" fill-opacity="1"></path><path clip-path="url(#clip460)" d="M2109.86 1451.02 L2128.22 1451.02 L2128.22 1454.96 L2114.15 1454.96 L2114.15 1463.43 Q2115.17 1463.08 2116.18 1462.92 Q2117.2 1462.73 2118.22 1462.73 Q2124.01 1462.73 2127.39 1465.9 Q2130.77 1469.08 2130.77 1474.49 Q2130.77 1480.07 2127.3 1483.17 Q2123.82 1486.25 2117.5 1486.25 Q2115.33 1486.25 2113.06 1485.88 Q2110.81 1485.51 2108.41 1484.77 L2108.41 1480.07 Q2110.49 1481.2 2112.71 1481.76 Q2114.93 1482.32 2117.41 1482.32 Q2121.42 1482.32 2123.75 1480.21 Q2126.09 1478.1 2126.09 1474.49 Q2126.09 1470.88 2123.75 1468.77 Q2121.42 1466.67 2117.41 1466.67 Q2115.54 1466.67 2113.66 1467.08 Q2111.81 1467.5 2109.86 1468.38 L2109.86 1451.02 Z" fill="#000000" fill-rule="nonzero" fill-opacity="1"></path><path clip-path="url(#clip460)" d="M2149.98 1454.1 Q2146.37 1454.1 2144.54 1457.66 Q2142.74 1461.2 2142.74 1468.33 Q2142.74 1475.44 2144.54 1479.01 Q2146.37 1482.55 2149.98 1482.55 Q2153.61 1482.55 2155.42 1479.01 Q2157.25 1475.44 2157.25 1468.33 Q2157.25 1461.2 2155.42 1457.66 Q2153.61 1454.1 2149.98 1454.1 M2149.98 1450.39 Q2155.79 1450.39 2158.85 1455 Q2161.92 1459.58 2161.92 1468.33 Q2161.92 1477.06 2158.85 1481.67 Q2155.79 1486.25 2149.98 1486.25 Q2144.17 1486.25 2141.09 1481.67 Q2138.04 1477.06 2138.04 1468.33 Q2138.04 1459.58 2141.09 1455 Q2144.17 1450.39 2149.98 1450.39 Z" fill="#000000" fill-rule="nonzero" fill-opacity="1"></path><path clip-path="url(#clip460)" d="M1289.58 1520.52 L1296.01 1520.52 L1296.01 1562.63 L1319.15 1562.63 L1319.15 1568.04 L1289.58 1568.04 L1289.58 1520.52 Z" fill="#000000" fill-rule="nonzero" fill-opacity="1"></path><polyline clip-path="url(#clip462)" style="stroke:#000000; stroke-linecap:round; stroke-linejoin:round; stroke-width:2; stroke-opacity:0.1; fill:none" points="255.977,1338.13 2352.76,1338.13 "></polyline>
<polyline clip-path="url(#clip462)" style="stroke:#000000; stroke-linecap:round; stroke-linejoin:round; stroke-width:2; stroke-opacity:0.1; fill:none" points="255.977,1073.63 2352.76,1073.63 "></polyline>
<polyline clip-path="url(#clip462)" style="stroke:#000000; stroke-linecap:round; stroke-linejoin:round; stroke-width:2; stroke-opacity:0.1; fill:none" points="255.977,809.138 2352.76,809.138 "></polyline>
<polyline clip-path="url(#clip462)" style="stroke:#000000; stroke-linecap:round; stroke-linejoin:round; stroke-width:2; stroke-opacity:0.1; fill:none" points="255.977,544.642 2352.76,544.642 "></polyline>
<polyline clip-path="url(#clip462)" style="stroke:#000000; stroke-linecap:round; stroke-linejoin:round; stroke-width:2; stroke-opacity:0.1; fill:none" points="255.977,280.146 2352.76,280.146 "></polyline>
<polyline clip-path="url(#clip460)" style="stroke:#000000; stroke-linecap:round; stroke-linejoin:round; stroke-width:4; stroke-opacity:1; fill:none" points="255.977,1423.18 255.977,123.472 "></polyline>
<polyline clip-path="url(#clip460)" style="stroke:#000000; stroke-linecap:round; stroke-linejoin:round; stroke-width:4; stroke-opacity:1; fill:none" points="255.977,1338.13 274.875,1338.13 "></polyline>
<polyline clip-path="url(#clip460)" style="stroke:#000000; stroke-linecap:round; stroke-linejoin:round; stroke-width:4; stroke-opacity:1; fill:none" points="255.977,1073.63 274.875,1073.63 "></polyline>
<polyline clip-path="url(#clip460)" style="stroke:#000000; stroke-linecap:round; stroke-linejoin:round; stroke-width:4; stroke-opacity:1; fill:none" points="255.977,809.138 274.875,809.138 "></polyline>
<polyline clip-path="url(#clip460)" style="stroke:#000000; stroke-linecap:round; stroke-linejoin:round; stroke-width:4; stroke-opacity:1; fill:none" points="255.977,544.642 274.875,544.642 "></polyline>
<polyline clip-path="url(#clip460)" style="stroke:#000000; stroke-linecap:round; stroke-linejoin:round; stroke-width:4; stroke-opacity:1; fill:none" points="255.977,280.146 274.875,280.146 "></polyline>
<path clip-path="url(#clip460)" d="M114.631 1338.58 L144.306 1338.58 L144.306 1342.52 L114.631 1342.52 L114.631 1338.58 Z" fill="#000000" fill-rule="nonzero" fill-opacity="1"></path><path clip-path="url(#clip460)" d="M164.399 1323.93 Q160.788 1323.93 158.959 1327.49 Q157.153 1331.04 157.153 1338.16 Q157.153 1345.27 158.959 1348.84 Q160.788 1352.38 164.399 1352.38 Q168.033 1352.38 169.839 1348.84 Q171.667 1345.27 171.667 1338.16 Q171.667 1331.04 169.839 1327.49 Q168.033 1323.93 164.399 1323.93 M164.399 1320.22 Q170.209 1320.22 173.264 1324.83 Q176.343 1329.41 176.343 1338.16 Q176.343 1346.89 173.264 1351.5 Q170.209 1356.08 164.399 1356.08 Q158.589 1356.08 155.51 1351.5 Q152.454 1346.89 152.454 1338.16 Q152.454 1329.41 155.51 1324.83 Q158.589 1320.22 164.399 1320.22 Z" fill="#000000" fill-rule="nonzero" fill-opacity="1"></path><path clip-path="url(#clip460)" d="M184.561 1349.53 L189.445 1349.53 L189.445 1355.41 L184.561 1355.41 L184.561 1349.53 Z" fill="#000000" fill-rule="nonzero" fill-opacity="1"></path><path clip-path="url(#clip460)" d="M203.658 1351.47 L219.977 1351.47 L219.977 1355.41 L198.033 1355.41 L198.033 1351.47 Q200.695 1348.72 205.278 1344.09 Q209.885 1339.44 211.065 1338.1 Q213.311 1335.57 214.19 1333.84 Q215.093 1332.08 215.093 1330.39 Q215.093 1327.63 213.149 1325.9 Q211.227 1324.16 208.125 1324.16 Q205.926 1324.16 203.473 1324.92 Q201.042 1325.69 198.264 1327.24 L198.264 1322.52 Q201.088 1321.38 203.542 1320.8 Q205.996 1320.22 208.033 1320.22 Q213.403 1320.22 216.598 1322.91 Q219.792 1325.6 219.792 1330.09 Q219.792 1332.22 218.982 1334.14 Q218.195 1336.04 216.088 1338.63 Q215.51 1339.3 212.408 1342.52 Q209.306 1345.71 203.658 1351.47 Z" fill="#000000" fill-rule="nonzero" fill-opacity="1"></path><path clip-path="url(#clip460)" d="M114.26 1074.09 L143.936 1074.09 L143.936 1078.02 L114.26 1078.02 L114.26 1074.09 Z" fill="#000000" fill-rule="nonzero" fill-opacity="1"></path><path clip-path="url(#clip460)" d="M164.028 1059.43 Q160.417 1059.43 158.589 1063 Q156.783 1066.54 156.783 1073.67 Q156.783 1080.78 158.589 1084.34 Q160.417 1087.88 164.028 1087.88 Q167.663 1087.88 169.468 1084.34 Q171.297 1080.78 171.297 1073.67 Q171.297 1066.54 169.468 1063 Q167.663 1059.43 164.028 1059.43 M164.028 1055.73 Q169.839 1055.73 172.894 1060.34 Q175.973 1064.92 175.973 1073.67 Q175.973 1082.4 172.894 1087 Q169.839 1091.59 164.028 1091.59 Q158.218 1091.59 155.14 1087 Q152.084 1082.4 152.084 1073.67 Q152.084 1064.92 155.14 1060.34 Q158.218 1055.73 164.028 1055.73 Z" fill="#000000" fill-rule="nonzero" fill-opacity="1"></path><path clip-path="url(#clip460)" d="M184.19 1085.03 L189.075 1085.03 L189.075 1090.91 L184.19 1090.91 L184.19 1085.03 Z" fill="#000000" fill-rule="nonzero" fill-opacity="1"></path><path clip-path="url(#clip460)" d="M200.07 1086.98 L207.709 1086.98 L207.709 1060.61 L199.399 1062.28 L199.399 1058.02 L207.662 1056.35 L212.338 1056.35 L212.338 1086.98 L219.977 1086.98 L219.977 1090.91 L200.07 1090.91 L200.07 1086.98 Z" fill="#000000" fill-rule="nonzero" fill-opacity="1"></path><path clip-path="url(#clip460)" d="M162.802 794.937 Q159.19 794.937 157.362 798.501 Q155.556 802.043 155.556 809.173 Q155.556 816.279 157.362 819.844 Q159.19 823.386 162.802 823.386 Q166.436 823.386 168.241 819.844 Q170.07 816.279 170.07 809.173 Q170.07 802.043 168.241 798.501 Q166.436 794.937 162.802 794.937 M162.802 791.233 Q168.612 791.233 171.667 795.839 Q174.746 800.423 174.746 809.173 Q174.746 817.899 171.667 822.506 Q168.612 827.089 162.802 827.089 Q156.991 827.089 153.913 822.506 Q150.857 817.899 150.857 809.173 Q150.857 800.423 153.913 795.839 Q156.991 791.233 162.802 791.233 Z" fill="#000000" fill-rule="nonzero" fill-opacity="1"></path><path clip-path="url(#clip460)" d="M182.963 820.538 L187.848 820.538 L187.848 826.418 L182.963 826.418 L182.963 820.538 Z" fill="#000000" fill-rule="nonzero" fill-opacity="1"></path><path clip-path="url(#clip460)" d="M208.033 794.937 Q204.422 794.937 202.593 798.501 Q200.787 802.043 200.787 809.173 Q200.787 816.279 202.593 819.844 Q204.422 823.386 208.033 823.386 Q211.667 823.386 213.473 819.844 Q215.301 816.279 215.301 809.173 Q215.301 802.043 213.473 798.501 Q211.667 794.937 208.033 794.937 M208.033 791.233 Q213.843 791.233 216.898 795.839 Q219.977 800.423 219.977 809.173 Q219.977 817.899 216.898 822.506 Q213.843 827.089 208.033 827.089 Q202.223 827.089 199.144 822.506 Q196.088 817.899 196.088 809.173 Q196.088 800.423 199.144 795.839 Q202.223 791.233 208.033 791.233 Z" fill="#000000" fill-rule="nonzero" fill-opacity="1"></path><path clip-path="url(#clip460)" d="M164.028 530.441 Q160.417 530.441 158.589 534.005 Q156.783 537.547 156.783 544.677 Q156.783 551.783 158.589 555.348 Q160.417 558.889 164.028 558.889 Q167.663 558.889 169.468 555.348 Q171.297 551.783 171.297 544.677 Q171.297 537.547 169.468 534.005 Q167.663 530.441 164.028 530.441 M164.028 526.737 Q169.839 526.737 172.894 531.343 Q175.973 535.927 175.973 544.677 Q175.973 553.403 172.894 558.01 Q169.839 562.593 164.028 562.593 Q158.218 562.593 155.14 558.01 Q152.084 553.403 152.084 544.677 Q152.084 535.927 155.14 531.343 Q158.218 526.737 164.028 526.737 Z" fill="#000000" fill-rule="nonzero" fill-opacity="1"></path><path clip-path="url(#clip460)" d="M184.19 556.042 L189.075 556.042 L189.075 561.922 L184.19 561.922 L184.19 556.042 Z" fill="#000000" fill-rule="nonzero" fill-opacity="1"></path><path clip-path="url(#clip460)" d="M200.07 557.987 L207.709 557.987 L207.709 531.621 L199.399 533.288 L199.399 529.029 L207.662 527.362 L212.338 527.362 L212.338 557.987 L219.977 557.987 L219.977 561.922 L200.07 561.922 L200.07 557.987 Z" fill="#000000" fill-rule="nonzero" fill-opacity="1"></path><path clip-path="url(#clip460)" d="M164.399 265.945 Q160.788 265.945 158.959 269.509 Q157.153 273.051 157.153 280.181 Q157.153 287.287 158.959 290.852 Q160.788 294.393 164.399 294.393 Q168.033 294.393 169.839 290.852 Q171.667 287.287 171.667 280.181 Q171.667 273.051 169.839 269.509 Q168.033 265.945 164.399 265.945 M164.399 262.241 Q170.209 262.241 173.264 266.847 Q176.343 271.431 176.343 280.181 Q176.343 288.907 173.264 293.514 Q170.209 298.097 164.399 298.097 Q158.589 298.097 155.51 293.514 Q152.454 288.907 152.454 280.181 Q152.454 271.431 155.51 266.847 Q158.589 262.241 164.399 262.241 Z" fill="#000000" fill-rule="nonzero" fill-opacity="1"></path><path clip-path="url(#clip460)" d="M184.561 291.546 L189.445 291.546 L189.445 297.426 L184.561 297.426 L184.561 291.546 Z" fill="#000000" fill-rule="nonzero" fill-opacity="1"></path><path clip-path="url(#clip460)" d="M203.658 293.491 L219.977 293.491 L219.977 297.426 L198.033 297.426 L198.033 293.491 Q200.695 290.736 205.278 286.106 Q209.885 281.454 211.065 280.111 Q213.311 277.588 214.19 275.852 Q215.093 274.093 215.093 272.403 Q215.093 269.648 213.149 267.912 Q211.227 266.176 208.125 266.176 Q205.926 266.176 203.473 266.94 Q201.042 267.704 198.264 269.255 L198.264 264.533 Q201.088 263.398 203.542 262.82 Q205.996 262.241 208.033 262.241 Q213.403 262.241 216.598 264.926 Q219.792 267.611 219.792 272.102 Q219.792 274.232 218.982 276.153 Q218.195 278.051 216.088 280.644 Q215.51 281.315 212.408 284.532 Q209.306 287.727 203.658 293.491 Z" fill="#000000" fill-rule="nonzero" fill-opacity="1"></path><path clip-path="url(#clip460)" d="M16.4842 842.187 L16.4842 814.878 L21.895 814.878 L21.895 835.758 L35.8996 835.758 L35.8996 816.915 L41.3104 816.915 L41.3104 835.758 L64.0042 835.758 L64.0042 842.187 L16.4842 842.187 Z" fill="#000000" fill-rule="nonzero" fill-opacity="1"></path><path clip-path="url(#clip460)" d="M28.3562 809.69 L28.3562 803.834 L64.0042 803.834 L64.0042 809.69 L28.3562 809.69 M14.479 809.69 L14.479 803.834 L21.895 803.834 L21.895 809.69 L14.479 809.69 Z" fill="#000000" fill-rule="nonzero" fill-opacity="1"></path><path clip-path="url(#clip460)" d="M42.4881 761.947 L64.0042 761.947 L64.0042 767.804 L42.679 767.804 Q37.6183 767.804 35.1038 769.777 Q32.5894 771.75 32.5894 775.697 Q32.5894 780.44 35.6131 783.177 Q38.6368 785.914 43.8567 785.914 L64.0042 785.914 L64.0042 791.802 L28.3562 791.802 L28.3562 785.914 L33.8944 785.914 Q30.6797 783.813 29.0883 780.981 Q27.4968 778.116 27.4968 774.392 Q27.4968 768.249 31.3163 765.098 Q35.1038 761.947 42.4881 761.947 Z" fill="#000000" fill-rule="nonzero" fill-opacity="1"></path><path clip-path="url(#clip460)" d="M46.0847 734.065 Q46.0847 741.163 47.7079 743.901 Q49.3312 746.638 53.2461 746.638 Q56.3653 746.638 58.2114 744.601 Q60.0256 742.532 60.0256 738.999 Q60.0256 734.129 56.5881 731.201 Q53.1188 728.241 47.3897 728.241 L46.0847 728.241 L46.0847 734.065 M43.6657 722.384 L64.0042 722.384 L64.0042 728.241 L58.5933 728.241 Q61.8398 730.246 63.3994 733.238 Q64.9272 736.23 64.9272 740.559 Q64.9272 746.033 61.8716 749.28 Q58.7843 752.494 53.6281 752.494 Q47.6125 752.494 44.5569 748.484 Q41.5014 744.442 41.5014 736.453 L41.5014 728.241 L40.9285 728.241 Q36.8862 728.241 34.6901 730.914 Q32.4621 733.556 32.4621 738.362 Q32.4621 741.418 33.1941 744.314 Q33.9262 747.211 35.3903 749.884 L29.9795 749.884 Q28.7381 746.67 28.1334 743.646 Q27.4968 740.622 27.4968 737.758 Q27.4968 730.023 31.5072 726.204 Q35.5176 722.384 43.6657 722.384 Z" fill="#000000" fill-rule="nonzero" fill-opacity="1"></path><path clip-path="url(#clip460)" d="M14.479 710.321 L14.479 704.465 L64.0042 704.465 L64.0042 710.321 L14.479 710.321 Z" fill="#000000" fill-rule="nonzero" fill-opacity="1"></path><path clip-path="url(#clip460)" d="M981.064 18.8205 L981.064 41.5461 L991.353 41.5461 Q997.065 41.5461 1000.18 38.5889 Q1003.3 35.6318 1003.3 30.163 Q1003.3 24.7348 1000.18 21.7777 Q997.065 18.8205 991.353 18.8205 L981.064 18.8205 M972.881 12.096 L991.353 12.096 Q1001.52 12.096 1006.71 16.714 Q1011.93 21.2916 1011.93 30.163 Q1011.93 39.1155 1006.71 43.6931 Q1001.52 48.2706 991.353 48.2706 L981.064 48.2706 L981.064 72.576 L972.881 72.576 L972.881 12.096 Z" fill="#000000" fill-rule="nonzero" fill-opacity="1"></path><path clip-path="url(#clip460)" d="M1022.59 9.54393 L1030.04 9.54393 L1030.04 72.576 L1022.59 72.576 L1022.59 9.54393 Z" fill="#000000" fill-rule="nonzero" fill-opacity="1"></path><path clip-path="url(#clip460)" d="M1063.22 32.4315 Q1057.22 32.4315 1053.74 37.1306 Q1050.25 41.7891 1050.25 49.9314 Q1050.25 58.0738 1053.7 62.7728 Q1057.18 67.4314 1063.22 67.4314 Q1069.17 67.4314 1072.65 62.7323 Q1076.14 58.0333 1076.14 49.9314 Q1076.14 41.8701 1072.65 37.1711 Q1069.17 32.4315 1063.22 32.4315 M1063.22 26.1121 Q1072.94 26.1121 1078.49 32.4315 Q1084.04 38.7509 1084.04 49.9314 Q1084.04 61.0714 1078.49 67.4314 Q1072.94 73.7508 1063.22 73.7508 Q1053.45 73.7508 1047.9 67.4314 Q1042.39 61.0714 1042.39 49.9314 Q1042.39 38.7509 1047.9 32.4315 Q1053.45 26.1121 1063.22 26.1121 Z" fill="#000000" fill-rule="nonzero" fill-opacity="1"></path><path clip-path="url(#clip460)" d="M1103.77 14.324 L1103.77 27.2059 L1119.12 27.2059 L1119.12 32.9987 L1103.77 32.9987 L1103.77 57.6282 Q1103.77 63.1779 1105.26 64.7578 Q1106.8 66.3376 1111.46 66.3376 L1119.12 66.3376 L1119.12 72.576 L1111.46 72.576 Q1102.83 72.576 1099.55 69.3758 Q1096.27 66.1351 1096.27 57.6282 L1096.27 32.9987 L1090.8 32.9987 L1090.8 27.2059 L1096.27 27.2059 L1096.27 14.324 L1103.77 14.324 Z" fill="#000000" fill-rule="nonzero" fill-opacity="1"></path><path clip-path="url(#clip460)" d="M1172.87 32.4315 Q1166.88 32.4315 1163.4 37.1306 Q1159.91 41.7891 1159.91 49.9314 Q1159.91 58.0738 1163.35 62.7728 Q1166.84 67.4314 1172.87 67.4314 Q1178.83 67.4314 1182.31 62.7323 Q1185.8 58.0333 1185.8 49.9314 Q1185.8 41.8701 1182.31 37.1711 Q1178.83 32.4315 1172.87 32.4315 M1172.87 26.1121 Q1182.6 26.1121 1188.15 32.4315 Q1193.7 38.7509 1193.7 49.9314 Q1193.7 61.0714 1188.15 67.4314 Q1182.6 73.7508 1172.87 73.7508 Q1163.11 73.7508 1157.56 67.4314 Q1152.05 61.0714 1152.05 49.9314 Q1152.05 38.7509 1157.56 32.4315 Q1163.11 26.1121 1172.87 26.1121 Z" fill="#000000" fill-rule="nonzero" fill-opacity="1"></path><path clip-path="url(#clip460)" d="M1229.02 9.54393 L1229.02 15.7418 L1221.89 15.7418 Q1217.88 15.7418 1216.3 17.3622 Q1214.76 18.9825 1214.76 23.1955 L1214.76 27.2059 L1227.03 27.2059 L1227.03 32.9987 L1214.76 32.9987 L1214.76 72.576 L1207.27 72.576 L1207.27 32.9987 L1200.14 32.9987 L1200.14 27.2059 L1207.27 27.2059 L1207.27 24.0462 Q1207.27 16.471 1210.79 13.0277 Q1214.31 9.54393 1221.97 9.54393 L1229.02 9.54393 Z" fill="#000000" fill-rule="nonzero" fill-opacity="1"></path><path clip-path="url(#clip460)" d="M1261.95 12.096 L1296.71 12.096 L1296.71 18.9825 L1270.14 18.9825 L1270.14 36.8065 L1294.12 36.8065 L1294.12 43.6931 L1270.14 43.6931 L1270.14 72.576 L1261.95 72.576 L1261.95 12.096 Z" fill="#000000" fill-rule="nonzero" fill-opacity="1"></path><path clip-path="url(#clip460)" d="M1303.31 27.2059 L1310.77 27.2059 L1310.77 72.576 L1303.31 72.576 L1303.31 27.2059 M1303.31 9.54393 L1310.77 9.54393 L1310.77 18.9825 L1303.31 18.9825 L1303.31 9.54393 Z" fill="#000000" fill-rule="nonzero" fill-opacity="1"></path><path clip-path="url(#clip460)" d="M1364.08 45.1919 L1364.08 72.576 L1356.62 72.576 L1356.62 45.4349 Q1356.62 38.994 1354.11 35.7938 Q1351.6 32.5936 1346.58 32.5936 Q1340.54 32.5936 1337.06 36.4419 Q1333.57 40.2903 1333.57 46.9338 L1333.57 72.576 L1326.08 72.576 L1326.08 27.2059 L1333.57 27.2059 L1333.57 34.2544 Q1336.25 30.163 1339.85 28.1376 Q1343.5 26.1121 1348.24 26.1121 Q1356.06 26.1121 1360.07 30.9732 Q1364.08 35.7938 1364.08 45.1919 Z" fill="#000000" fill-rule="nonzero" fill-opacity="1"></path><path clip-path="url(#clip460)" d="M1399.56 49.7694 Q1390.53 49.7694 1387.05 51.8354 Q1383.56 53.9013 1383.56 58.8839 Q1383.56 62.8538 1386.15 65.2034 Q1388.79 67.5124 1393.28 67.5124 Q1399.48 67.5124 1403.21 63.1374 Q1406.98 58.7219 1406.98 51.4303 L1406.98 49.7694 L1399.56 49.7694 M1414.43 46.6907 L1414.43 72.576 L1406.98 72.576 L1406.98 65.6895 Q1404.42 69.8214 1400.62 71.8063 Q1396.81 73.7508 1391.3 73.7508 Q1384.33 73.7508 1380.2 69.8619 Q1376.11 65.9325 1376.11 59.3701 Q1376.11 51.7138 1381.21 47.825 Q1386.36 43.9361 1396.52 43.9361 L1406.98 43.9361 L1406.98 43.2069 Q1406.98 38.0623 1403.57 35.2672 Q1400.21 32.4315 1394.09 32.4315 Q1390.21 32.4315 1386.52 33.3632 Q1382.83 34.295 1379.43 36.1584 L1379.43 29.2718 Q1383.52 27.692 1387.37 26.9223 Q1391.22 26.1121 1394.86 26.1121 Q1404.71 26.1121 1409.57 31.2163 Q1414.43 36.3204 1414.43 46.6907 Z" fill="#000000" fill-rule="nonzero" fill-opacity="1"></path><path clip-path="url(#clip460)" d="M1429.78 9.54393 L1437.24 9.54393 L1437.24 72.576 L1429.78 72.576 L1429.78 9.54393 Z" fill="#000000" fill-rule="nonzero" fill-opacity="1"></path><path clip-path="url(#clip460)" d="M1473.86 27.2059 L1481.76 27.2059 L1495.93 65.2844 L1510.11 27.2059 L1518.01 27.2059 L1501 72.576 L1490.87 72.576 L1473.86 27.2059 Z" fill="#000000" fill-rule="nonzero" fill-opacity="1"></path><path clip-path="url(#clip460)" d="M1557.22 28.5427 L1557.22 35.5912 Q1554.06 33.9709 1550.66 33.1607 Q1547.26 32.3505 1543.61 32.3505 Q1538.06 32.3505 1535.27 34.0519 Q1532.51 35.7533 1532.51 39.156 Q1532.51 41.7486 1534.5 43.2475 Q1536.48 44.7058 1542.48 46.0426 L1545.03 46.6097 Q1552.97 48.3111 1556.29 51.4303 Q1559.65 54.509 1559.65 60.0587 Q1559.65 66.3781 1554.63 70.0644 Q1549.65 73.7508 1540.9 73.7508 Q1537.25 73.7508 1533.28 73.0216 Q1529.35 72.3329 1524.98 70.9151 L1524.98 63.2184 Q1529.11 65.3654 1533.12 66.4591 Q1537.13 67.5124 1541.06 67.5124 Q1546.33 67.5124 1549.16 65.73 Q1552 63.9071 1552 60.6258 Q1552 57.5877 1549.93 55.9673 Q1547.91 54.3469 1540.98 52.8481 L1538.39 52.2405 Q1531.46 50.7821 1528.38 47.7845 Q1525.3 44.7463 1525.3 39.4801 Q1525.3 33.0797 1529.84 29.5959 Q1534.38 26.1121 1542.72 26.1121 Q1546.85 26.1121 1550.5 26.7198 Q1554.15 27.3274 1557.22 28.5427 Z" fill="#000000" fill-rule="nonzero" fill-opacity="1"></path><path clip-path="url(#clip460)" d="M1598.22 12.096 L1606.4 12.096 L1606.4 65.6895 L1635.85 65.6895 L1635.85 72.576 L1598.22 72.576 L1598.22 12.096 Z" fill="#000000" fill-rule="nonzero" fill-opacity="1"></path><circle clip-path="url(#clip462)" cx="315.32" cy="1386.4" r="7.2" fill="#009af9" fill-rule="evenodd" fill-opacity="0.5" stroke="#000000" stroke-opacity="0.5" stroke-width="3.2"></circle>
<circle clip-path="url(#clip462)" cx="354.882" cy="966.832" r="7.2" fill="#009af9" fill-rule="evenodd" fill-opacity="0.5" stroke="#000000" stroke-opacity="0.5" stroke-width="3.2"></circle>
<circle clip-path="url(#clip462)" cx="394.444" cy="192.367" r="7.2" fill="#009af9" fill-rule="evenodd" fill-opacity="0.5" stroke="#000000" stroke-opacity="0.5" stroke-width="3.2"></circle>
<circle clip-path="url(#clip462)" cx="434.006" cy="160.256" r="7.2" fill="#009af9" fill-rule="evenodd" fill-opacity="0.5" stroke="#000000" stroke-opacity="0.5" stroke-width="3.2"></circle>
<circle clip-path="url(#clip462)" cx="473.567" cy="682.204" r="7.2" fill="#009af9" fill-rule="evenodd" fill-opacity="0.5" stroke="#000000" stroke-opacity="0.5" stroke-width="3.2"></circle>
<circle clip-path="url(#clip462)" cx="513.129" cy="1113.04" r="7.2" fill="#009af9" fill-rule="evenodd" fill-opacity="0.5" stroke="#000000" stroke-opacity="0.5" stroke-width="3.2"></circle>
<circle clip-path="url(#clip462)" cx="552.691" cy="1190.21" r="7.2" fill="#009af9" fill-rule="evenodd" fill-opacity="0.5" stroke="#000000" stroke-opacity="0.5" stroke-width="3.2"></circle>
<circle clip-path="url(#clip462)" cx="592.253" cy="1025.59" r="7.2" fill="#009af9" fill-rule="evenodd" fill-opacity="0.5" stroke="#000000" stroke-opacity="0.5" stroke-width="3.2"></circle>
<circle clip-path="url(#clip462)" cx="631.815" cy="816.96" r="7.2" fill="#009af9" fill-rule="evenodd" fill-opacity="0.5" stroke="#000000" stroke-opacity="0.5" stroke-width="3.2"></circle>
<circle clip-path="url(#clip462)" cx="671.377" cy="681.972" r="7.2" fill="#009af9" fill-rule="evenodd" fill-opacity="0.5" stroke="#000000" stroke-opacity="0.5" stroke-width="3.2"></circle>
<circle clip-path="url(#clip462)" cx="710.939" cy="641.583" r="7.2" fill="#009af9" fill-rule="evenodd" fill-opacity="0.5" stroke="#000000" stroke-opacity="0.5" stroke-width="3.2"></circle>
<circle clip-path="url(#clip462)" cx="750.5" cy="664.693" r="7.2" fill="#009af9" fill-rule="evenodd" fill-opacity="0.5" stroke="#000000" stroke-opacity="0.5" stroke-width="3.2"></circle>
<circle clip-path="url(#clip462)" cx="790.062" cy="711.309" r="7.2" fill="#009af9" fill-rule="evenodd" fill-opacity="0.5" stroke="#000000" stroke-opacity="0.5" stroke-width="3.2"></circle>
<circle clip-path="url(#clip462)" cx="829.624" cy="754.123" r="7.2" fill="#009af9" fill-rule="evenodd" fill-opacity="0.5" stroke="#000000" stroke-opacity="0.5" stroke-width="3.2"></circle>
<circle clip-path="url(#clip462)" cx="869.186" cy="781.951" r="7.2" fill="#009af9" fill-rule="evenodd" fill-opacity="0.5" stroke="#000000" stroke-opacity="0.5" stroke-width="3.2"></circle>
<circle clip-path="url(#clip462)" cx="908.748" cy="794.655" r="7.2" fill="#009af9" fill-rule="evenodd" fill-opacity="0.5" stroke="#000000" stroke-opacity="0.5" stroke-width="3.2"></circle>
<circle clip-path="url(#clip462)" cx="948.31" cy="796.853" r="7.2" fill="#009af9" fill-rule="evenodd" fill-opacity="0.5" stroke="#000000" stroke-opacity="0.5" stroke-width="3.2"></circle>
<circle clip-path="url(#clip462)" cx="987.872" cy="793.657" r="7.2" fill="#009af9" fill-rule="evenodd" fill-opacity="0.5" stroke="#000000" stroke-opacity="0.5" stroke-width="3.2"></circle>
<circle clip-path="url(#clip462)" cx="1027.43" cy="788.785" r="7.2" fill="#009af9" fill-rule="evenodd" fill-opacity="0.5" stroke="#000000" stroke-opacity="0.5" stroke-width="3.2"></circle>
<circle clip-path="url(#clip462)" cx="1067" cy="784.281" r="7.2" fill="#009af9" fill-rule="evenodd" fill-opacity="0.5" stroke="#000000" stroke-opacity="0.5" stroke-width="3.2"></circle>
<circle clip-path="url(#clip462)" cx="1106.56" cy="780.921" r="7.2" fill="#009af9" fill-rule="evenodd" fill-opacity="0.5" stroke="#000000" stroke-opacity="0.5" stroke-width="3.2"></circle>
<circle clip-path="url(#clip462)" cx="1146.12" cy="778.76" r="7.2" fill="#009af9" fill-rule="evenodd" fill-opacity="0.5" stroke="#000000" stroke-opacity="0.5" stroke-width="3.2"></circle>
<circle clip-path="url(#clip462)" cx="1185.68" cy="777.548" r="7.2" fill="#009af9" fill-rule="evenodd" fill-opacity="0.5" stroke="#000000" stroke-opacity="0.5" stroke-width="3.2"></circle>
<circle clip-path="url(#clip462)" cx="1225.24" cy="776.973" r="7.2" fill="#009af9" fill-rule="evenodd" fill-opacity="0.5" stroke="#000000" stroke-opacity="0.5" stroke-width="3.2"></circle>
<circle clip-path="url(#clip462)" cx="1264.8" cy="776.775" r="7.2" fill="#009af9" fill-rule="evenodd" fill-opacity="0.5" stroke="#000000" stroke-opacity="0.5" stroke-width="3.2"></circle>
<circle clip-path="url(#clip462)" cx="1304.37" cy="776.771" r="7.2" fill="#009af9" fill-rule="evenodd" fill-opacity="0.5" stroke="#000000" stroke-opacity="0.5" stroke-width="3.2"></circle>
<circle clip-path="url(#clip462)" cx="1343.93" cy="776.851" r="7.2" fill="#009af9" fill-rule="evenodd" fill-opacity="0.5" stroke="#000000" stroke-opacity="0.5" stroke-width="3.2"></circle>
<circle clip-path="url(#clip462)" cx="1383.49" cy="776.954" r="7.2" fill="#009af9" fill-rule="evenodd" fill-opacity="0.5" stroke="#000000" stroke-opacity="0.5" stroke-width="3.2"></circle>
<circle clip-path="url(#clip462)" cx="1423.05" cy="777.051" r="7.2" fill="#009af9" fill-rule="evenodd" fill-opacity="0.5" stroke="#000000" stroke-opacity="0.5" stroke-width="3.2"></circle>
<circle clip-path="url(#clip462)" cx="1462.61" cy="777.133" r="7.2" fill="#009af9" fill-rule="evenodd" fill-opacity="0.5" stroke="#000000" stroke-opacity="0.5" stroke-width="3.2"></circle>
<circle clip-path="url(#clip462)" cx="1502.18" cy="777.197" r="7.2" fill="#009af9" fill-rule="evenodd" fill-opacity="0.5" stroke="#000000" stroke-opacity="0.5" stroke-width="3.2"></circle>
<circle clip-path="url(#clip462)" cx="1541.74" cy="777.245" r="7.2" fill="#009af9" fill-rule="evenodd" fill-opacity="0.5" stroke="#000000" stroke-opacity="0.5" stroke-width="3.2"></circle>
<circle clip-path="url(#clip462)" cx="1581.3" cy="777.281" r="7.2" fill="#009af9" fill-rule="evenodd" fill-opacity="0.5" stroke="#000000" stroke-opacity="0.5" stroke-width="3.2"></circle>
<circle clip-path="url(#clip462)" cx="1620.86" cy="777.307" r="7.2" fill="#009af9" fill-rule="evenodd" fill-opacity="0.5" stroke="#000000" stroke-opacity="0.5" stroke-width="3.2"></circle>
<circle clip-path="url(#clip462)" cx="1660.42" cy="777.327" r="7.2" fill="#009af9" fill-rule="evenodd" fill-opacity="0.5" stroke="#000000" stroke-opacity="0.5" stroke-width="3.2"></circle>
<circle clip-path="url(#clip462)" cx="1699.99" cy="777.342" r="7.2" fill="#009af9" fill-rule="evenodd" fill-opacity="0.5" stroke="#000000" stroke-opacity="0.5" stroke-width="3.2"></circle>
<circle clip-path="url(#clip462)" cx="1739.55" cy="777.353" r="7.2" fill="#009af9" fill-rule="evenodd" fill-opacity="0.5" stroke="#000000" stroke-opacity="0.5" stroke-width="3.2"></circle>
<circle clip-path="url(#clip462)" cx="1779.11" cy="777.362" r="7.2" fill="#009af9" fill-rule="evenodd" fill-opacity="0.5" stroke="#000000" stroke-opacity="0.5" stroke-width="3.2"></circle>
<circle clip-path="url(#clip462)" cx="1818.67" cy="777.368" r="7.2" fill="#009af9" fill-rule="evenodd" fill-opacity="0.5" stroke="#000000" stroke-opacity="0.5" stroke-width="3.2"></circle>
<circle clip-path="url(#clip462)" cx="1858.23" cy="777.374" r="7.2" fill="#009af9" fill-rule="evenodd" fill-opacity="0.5" stroke="#000000" stroke-opacity="0.5" stroke-width="3.2"></circle>
<circle clip-path="url(#clip462)" cx="1897.79" cy="777.378" r="7.2" fill="#009af9" fill-rule="evenodd" fill-opacity="0.5" stroke="#000000" stroke-opacity="0.5" stroke-width="3.2"></circle>
<circle clip-path="url(#clip462)" cx="1937.36" cy="777.381" r="7.2" fill="#009af9" fill-rule="evenodd" fill-opacity="0.5" stroke="#000000" stroke-opacity="0.5" stroke-width="3.2"></circle>
<circle clip-path="url(#clip462)" cx="1976.92" cy="777.384" r="7.2" fill="#009af9" fill-rule="evenodd" fill-opacity="0.5" stroke="#000000" stroke-opacity="0.5" stroke-width="3.2"></circle>
<circle clip-path="url(#clip462)" cx="2016.48" cy="777.386" r="7.2" fill="#009af9" fill-rule="evenodd" fill-opacity="0.5" stroke="#000000" stroke-opacity="0.5" stroke-width="3.2"></circle>
<circle clip-path="url(#clip462)" cx="2056.04" cy="777.388" r="7.2" fill="#009af9" fill-rule="evenodd" fill-opacity="0.5" stroke="#000000" stroke-opacity="0.5" stroke-width="3.2"></circle>
<circle clip-path="url(#clip462)" cx="2095.6" cy="777.39" r="7.2" fill="#009af9" fill-rule="evenodd" fill-opacity="0.5" stroke="#000000" stroke-opacity="0.5" stroke-width="3.2"></circle>
<circle clip-path="url(#clip462)" cx="2135.17" cy="777.391" r="7.2" fill="#009af9" fill-rule="evenodd" fill-opacity="0.5" stroke="#000000" stroke-opacity="0.5" stroke-width="3.2"></circle>
<circle clip-path="url(#clip462)" cx="2174.73" cy="777.392" r="7.2" fill="#009af9" fill-rule="evenodd" fill-opacity="0.5" stroke="#000000" stroke-opacity="0.5" stroke-width="3.2"></circle>
<circle clip-path="url(#clip462)" cx="2214.29" cy="777.393" r="7.2" fill="#009af9" fill-rule="evenodd" fill-opacity="0.5" stroke="#000000" stroke-opacity="0.5" stroke-width="3.2"></circle>
<circle clip-path="url(#clip462)" cx="2253.85" cy="777.394" r="7.2" fill="#009af9" fill-rule="evenodd" fill-opacity="0.5" stroke="#000000" stroke-opacity="0.5" stroke-width="3.2"></circle>
<circle clip-path="url(#clip462)" cx="2293.41" cy="777.395" r="7.2" fill="#009af9" fill-rule="evenodd" fill-opacity="0.5" stroke="#000000" stroke-opacity="0.5" stroke-width="3.2"></circle>
<polyline clip-path="url(#clip462)" style="stroke:#ff0000; stroke-linecap:round; stroke-linejoin:round; stroke-width:4; stroke-opacity:1; fill:none" stroke-dasharray="16, 10" points="-1840.8,777.398 4449.53,777.398 "></polyline>
<path clip-path="url(#clip460)" d="M1813.97 322.316 L2282.86 322.316 L2282.86 166.796 L1813.97 166.796  Z" fill="#ffffff" fill-rule="evenodd" fill-opacity="1"></path>
<polyline clip-path="url(#clip460)" style="stroke:#000000; stroke-linecap:round; stroke-linejoin:round; stroke-width:4; stroke-opacity:1; fill:none" points="1813.97,322.316 2282.86,322.316 2282.86,166.796 1813.97,166.796 1813.97,322.316 "></polyline>
<circle clip-path="url(#clip460)" cx="1907.16" cy="218.636" r="18.432" fill="#009af9" fill-rule="evenodd" fill-opacity="0.5" stroke="#000000" stroke-opacity="0.5" stroke-width="8.192"></circle>
<path clip-path="url(#clip460)" d="M2000.35 201.356 L2020.22 201.356 L2020.22 205.291 L2005.03 205.291 L2005.03 215.476 L2018.73 215.476 L2018.73 219.411 L2005.03 219.411 L2005.03 235.916 L2000.35 235.916 L2000.35 201.356 Z" fill="#000000" fill-rule="nonzero" fill-opacity="1"></path><path clip-path="url(#clip460)" d="M2023.99 209.99 L2028.25 209.99 L2028.25 235.916 L2023.99 235.916 L2023.99 209.99 M2023.99 199.897 L2028.25 199.897 L2028.25 205.291 L2023.99 205.291 L2023.99 199.897 Z" fill="#000000" fill-rule="nonzero" fill-opacity="1"></path><path clip-path="url(#clip460)" d="M2058.71 220.268 L2058.71 235.916 L2054.45 235.916 L2054.45 220.407 Q2054.45 216.726 2053.02 214.897 Q2051.58 213.069 2048.71 213.069 Q2045.26 213.069 2043.27 215.268 Q2041.28 217.467 2041.28 221.263 L2041.28 235.916 L2037 235.916 L2037 209.99 L2041.28 209.99 L2041.28 214.018 Q2042.81 211.68 2044.87 210.522 Q2046.95 209.365 2049.66 209.365 Q2054.13 209.365 2056.42 212.143 Q2058.71 214.897 2058.71 220.268 Z" fill="#000000" fill-rule="nonzero" fill-opacity="1"></path><path clip-path="url(#clip460)" d="M2078.99 222.883 Q2073.83 222.883 2071.84 224.064 Q2069.84 225.244 2069.84 228.092 Q2069.84 230.36 2071.33 231.703 Q2072.83 233.022 2075.4 233.022 Q2078.94 233.022 2081.07 230.522 Q2083.22 227.999 2083.22 223.832 L2083.22 222.883 L2078.99 222.883 M2087.48 221.124 L2087.48 235.916 L2083.22 235.916 L2083.22 231.981 Q2081.77 234.342 2079.59 235.476 Q2077.41 236.587 2074.27 236.587 Q2070.28 236.587 2067.92 234.365 Q2065.59 232.119 2065.59 228.369 Q2065.59 223.994 2068.5 221.772 Q2071.44 219.55 2077.25 219.55 L2083.22 219.55 L2083.22 219.133 Q2083.22 216.194 2081.28 214.596 Q2079.36 212.976 2075.86 212.976 Q2073.64 212.976 2071.53 213.508 Q2069.43 214.041 2067.48 215.106 L2067.48 211.17 Q2069.82 210.268 2072.02 209.828 Q2074.22 209.365 2076.3 209.365 Q2081.93 209.365 2084.71 212.282 Q2087.48 215.198 2087.48 221.124 Z" fill="#000000" fill-rule="nonzero" fill-opacity="1"></path><path clip-path="url(#clip460)" d="M2096.26 199.897 L2100.52 199.897 L2100.52 235.916 L2096.26 235.916 L2096.26 199.897 Z" fill="#000000" fill-rule="nonzero" fill-opacity="1"></path><polyline clip-path="url(#clip460)" style="stroke:#ff0000; stroke-linecap:round; stroke-linejoin:round; stroke-width:4; stroke-opacity:1; fill:none" stroke-dasharray="16, 10" points="1837.27,270.476 1977.06,270.476 "></polyline>
<path clip-path="url(#clip460)" d="M2015.54 265.811 Q2014.82 265.395 2013.97 265.21 Q2013.13 265.001 2012.11 265.001 Q2008.5 265.001 2006.56 267.362 Q2004.64 269.7 2004.64 274.098 L2004.64 287.756 L2000.35 287.756 L2000.35 261.83 L2004.64 261.83 L2004.64 265.858 Q2005.98 263.497 2008.13 262.362 Q2010.28 261.205 2013.36 261.205 Q2013.8 261.205 2014.34 261.274 Q2014.87 261.321 2015.52 261.436 L2015.54 265.811 Z" fill="#000000" fill-rule="nonzero" fill-opacity="1"></path><path clip-path="url(#clip460)" d="M2021.42 283.821 L2029.06 283.821 L2029.06 257.455 L2020.75 259.122 L2020.75 254.862 L2029.01 253.196 L2033.69 253.196 L2033.69 283.821 L2041.33 283.821 L2041.33 287.756 L2021.42 287.756 L2021.42 283.821 Z" fill="#000000" fill-rule="nonzero" fill-opacity="1"></path><path clip-path="url(#clip460)" d="M2054.2 253.196 L2054.2 266.043 L2050.26 266.043 L2050.26 253.196 L2054.2 253.196 Z" fill="#000000" fill-rule="nonzero" fill-opacity="1"></path><path clip-path="url(#clip460)" d="M2078.83 266.228 L2108.5 266.228 L2108.5 270.117 L2078.83 270.117 L2078.83 266.228 M2078.83 275.672 L2108.5 275.672 L2108.5 279.608 L2078.83 279.608 L2078.83 275.672 Z" fill="#000000" fill-rule="nonzero" fill-opacity="1"></path><path clip-path="url(#clip460)" d="M2143.66 256.274 Q2140.05 256.274 2138.22 259.839 Q2136.42 263.381 2136.42 270.51 Q2136.42 277.617 2138.22 281.182 Q2140.05 284.723 2143.66 284.723 Q2147.3 284.723 2149.1 281.182 Q2150.93 277.617 2150.93 270.51 Q2150.93 263.381 2149.1 259.839 Q2147.3 256.274 2143.66 256.274 M2143.66 252.571 Q2149.47 252.571 2152.53 257.177 Q2155.61 261.76 2155.61 270.51 Q2155.61 279.237 2152.53 283.844 Q2149.47 288.427 2143.66 288.427 Q2137.85 288.427 2134.77 283.844 Q2131.72 279.237 2131.72 270.51 Q2131.72 261.76 2134.77 257.177 Q2137.85 252.571 2143.66 252.571 Z" fill="#000000" fill-rule="nonzero" fill-opacity="1"></path><path clip-path="url(#clip460)" d="M2163.83 281.876 L2168.71 281.876 L2168.71 287.756 L2163.83 287.756 L2163.83 281.876 Z" fill="#000000" fill-rule="nonzero" fill-opacity="1"></path><path clip-path="url(#clip460)" d="M2188.89 256.274 Q2185.28 256.274 2183.46 259.839 Q2181.65 263.381 2181.65 270.51 Q2181.65 277.617 2183.46 281.182 Q2185.28 284.723 2188.89 284.723 Q2192.53 284.723 2194.33 281.182 Q2196.16 277.617 2196.16 270.51 Q2196.16 263.381 2194.33 259.839 Q2192.53 256.274 2188.89 256.274 M2188.89 252.571 Q2194.7 252.571 2197.76 257.177 Q2200.84 261.76 2200.84 270.51 Q2200.84 279.237 2197.76 283.844 Q2194.7 288.427 2188.89 288.427 Q2183.08 288.427 2180.01 283.844 Q2176.95 279.237 2176.95 270.51 Q2176.95 261.76 2180.01 257.177 Q2183.08 252.571 2188.89 252.571 Z" fill="#000000" fill-rule="nonzero" fill-opacity="1"></path><path clip-path="url(#clip460)" d="M2209.87 283.821 L2217.51 283.821 L2217.51 257.455 L2209.2 259.122 L2209.2 254.862 L2217.46 253.196 L2222.14 253.196 L2222.14 283.821 L2229.77 283.821 L2229.77 287.756 L2209.87 287.756 L2209.87 283.821 Z" fill="#000000" fill-rule="nonzero" fill-opacity="1"></path><path clip-path="url(#clip460)" d="M2243.25 283.821 L2259.57 283.821 L2259.57 287.756 L2237.62 287.756 L2237.62 283.821 Q2240.28 281.066 2244.87 276.436 Q2249.47 271.784 2250.65 270.441 Q2252.9 267.918 2253.78 266.182 Q2254.68 264.423 2254.68 262.733 Q2254.68 259.978 2252.74 258.242 Q2250.82 256.506 2247.71 256.506 Q2245.51 256.506 2243.06 257.27 Q2240.63 258.034 2237.85 259.585 L2237.85 254.862 Q2240.68 253.728 2243.13 253.149 Q2245.58 252.571 2247.62 252.571 Q2252.99 252.571 2256.19 255.256 Q2259.38 257.941 2259.38 262.432 Q2259.38 264.561 2258.57 266.483 Q2257.78 268.381 2255.68 270.973 Q2255.1 271.645 2252 274.862 Q2248.89 278.057 2243.25 283.821 Z" fill="#000000" fill-rule="nonzero" fill-opacity="1"></path></svg>